<svg xmlns="http://www.w3.org/2000/svg" width="18.148" height="18.148" viewBox="0 0 18.148 18.148">
  <path id="Icon_ionic-md-umbrella" data-name="Icon ionic-md-umbrella" d="M19.172,11.93a1.886,1.886,0,0,1,1.475,1.13h.877a9.024,9.024,0,0,0-2.591-6.147,9.445,9.445,0,0,0-5.785-2.866.995.995,0,0,0-1.88,0,8.764,8.764,0,0,0-7.892,8.852,1.007,1.007,0,0,0,.017.166h.951a1.885,1.885,0,0,1,1.54-1.13,1.675,1.675,0,0,1,1.592,1.13H8.34a1.482,1.482,0,0,1,1.44-1.121,1.513,1.513,0,0,1,1.488,1.422v5.161c0,.406,0,1.051-.585,1.051a.63.63,0,0,1-.724-.7v-.929H8.082v.929A2.52,2.52,0,0,0,10.7,21.523a2.594,2.594,0,0,0,1.9-.816,3.068,3.068,0,0,0,.589-2.186v-5.2c.087-1.126,1.043-1.383,1.828-1.383a1.817,1.817,0,0,1,1.649,1.117h.894A1.7,1.7,0,0,1,19.172,11.93Z" transform="translate(-3.375 -3.375)" fill="#999"/>
</svg>
